<?xml version="1.0" encoding="UTF-8" standalone="no"?>
<!-- Created with Inkscape (http://www.inkscape.org/) -->

<svg
   width="210mm"
   height="297mm"
   viewBox="0 0 210 297"
   version="1.1"
   id="svg1"
   inkscape:version="1.4.2 (f4327f4, 2025-05-13)"
   sodipodi:docname="Systems.svg"
   xmlns:inkscape="http://www.inkscape.org/namespaces/inkscape"
   xmlns:sodipodi="http://sodipodi.sourceforge.net/DTD/sodipodi-0.dtd"
   xmlns="http://www.w3.org/2000/svg"
   xmlns:svg="http://www.w3.org/2000/svg">
  <sodipodi:namedview
     id="namedview1"
     pagecolor="#ffffff"
     bordercolor="#000000"
     borderopacity="0.25"
     inkscape:showpageshadow="2"
     inkscape:pageopacity="0.0"
     inkscape:pagecheckerboard="0"
     inkscape:deskcolor="#d1d1d1"
     inkscape:document-units="mm"
     showguides="true"
     inkscape:zoom="1.6914493"
     inkscape:cx="383.39902"
     inkscape:cy="411.18584"
     inkscape:window-width="1920"
     inkscape:window-height="1009"
     inkscape:window-x="-8"
     inkscape:window-y="-8"
     inkscape:window-maximized="1"
     inkscape:current-layer="layer1" />
  <defs
     id="defs1" />
  <g
     inkscape:label="Layer 1"
     inkscape:groupmode="layer"
     id="layer1">
    <rect
       style="fill:#ececec;stroke:#1a1a1a;stroke-width:1"
       id="rect2"
       width="100.10409"
       height="5.8884759"
       x="-194.86"
       y="-31.893642"
       transform="rotate(-146.22408)" />
    <rect
       style="fill:#ececec;stroke:#1a1a1a;stroke-width:1"
       id="rect2-8"
       width="100.10409"
       height="5.8884759"
       x="-21.113272"
       y="144.48709"
       transform="rotate(-33.859256)" />
    <circle
       style="fill:#b3b3b3;stroke:#1a1a1a;stroke-width:1"
       id="path2"
       cx="-137.63847"
       cy="60.984528"
       r="13.98513"
       transform="rotate(-90.326027)" />
    <path
       style="fill:none;stroke:#1a1a1a;stroke-width:0.695111"
       id="path2-6"
       transform="rotate(-90.326027)"
       sodipodi:type="arc"
       sodipodi:cx="-137.62102"
       sodipodi:cy="60.997787"
       sodipodi:rx="9.7212191"
       sodipodi:ry="9.7212191"
       sodipodi:start="0.25959862"
       sodipodi:end="4.3679293"
       sodipodi:arc-type="arc"
       d="m -128.22553,63.493153 a 9.7212191,9.7212191 0 0 1 -9.96139,7.209368 9.7212191,9.7212191 0 0 1 -9.05594,-8.318303 9.7212191,9.7212191 0 0 1 6.3391,-10.536606"
       sodipodi:open="true" />
    <circle
       style="fill:#b3b3b3;stroke:#1a1a1a;stroke-width:1"
       id="path2-1"
       cx="-75.841362"
       cy="61.274925"
       r="13.98513"
       transform="rotate(-90.326027)" />
    <circle
       style="fill:#b3b3b3;stroke:#1a1a1a;stroke-width:1"
       id="path2-1-2"
       cx="-76.102013"
       cy="144.81776"
       r="13.98513"
       transform="rotate(-90.326027)" />
    <circle
       style="fill:#999999;stroke:#1a1a1a;stroke-width:1"
       id="path2-1-2-2"
       cx="-138.34479"
       cy="145.18369"
       r="13.98513"
       transform="rotate(-90.326027)" />
    <rect
       style="fill:#333333;fill-opacity:1;stroke:#1a1a1a;stroke-width:1.07855"
       id="rect1"
       width="32.754646"
       height="41.955391"
       x="-122.45776"
       y="81.594193"
       ry="12.513011"
       transform="rotate(-90.326027)" />
    <path
       style="fill:none;stroke:#1a1a1a;stroke-width:0.695111"
       id="path2-6-1"
       transform="matrix(0.00569021,-0.99998381,-0.99998381,-0.00569021,0,0)"
       sodipodi:type="arc"
       sodipodi:cx="-136.71194"
       sodipodi:cy="-146.30304"
       sodipodi:rx="9.7212191"
       sodipodi:ry="9.7212191"
       sodipodi:start="0.57264486"
       sodipodi:end="4.1795039"
       sodipodi:arc-type="arc"
       d="m -128.54154,-141.03553 a 9.7212191,9.7212191 0 0 1 -10.14109,4.25187 9.7212191,9.7212191 0 0 1 -7.6195,-7.92864 9.7212191,9.7212191 0 0 1 4.65161,-9.96406"
       sodipodi:open="true" />
    <path
       style="fill:none;stroke:#1a1a1a;stroke-width:0.695111"
       id="path2-6-1-9"
       transform="rotate(-90.326027)"
       sodipodi:type="arc"
       sodipodi:cx="-76.443916"
       sodipodi:cy="144.97125"
       sodipodi:rx="9.7212191"
       sodipodi:ry="9.7212191"
       sodipodi:start="0.67410054"
       sodipodi:end="3.1898661"
       sodipodi:arc-type="arc"
       d="m -68.849032,151.03919 a 9.7212191,9.7212191 0 0 1 -11.030216,3.02605 9.7212191,9.7212191 0 0 1 -6.274563,-9.56308"
       sodipodi:open="true" />
    <path
       style="fill:none;stroke:#1a1a1a;stroke-width:0.695111"
       id="path2-6-1-2"
       transform="matrix(0.00569021,-0.99998381,-0.99998381,-0.00569021,0,0)"
       sodipodi:type="arc"
       sodipodi:cx="-75.239532"
       sodipodi:cy="-62.147892"
       sodipodi:rx="9.7212191"
       sodipodi:ry="9.7212191"
       sodipodi:start="0.97621975"
       sodipodi:end="3.1712498"
       sodipodi:arc-type="arc"
       d="m -69.794113,-54.094973 a 9.7212191,9.7212191 0 0 1 -10.131068,0.464522 9.7212191,9.7212191 0 0 1 -5.031296,-8.805702"
       sodipodi:open="true" />
    <path
       sodipodi:type="star"
       style="fill:#333333;fill-opacity:1;stroke:#1a1a1a;stroke-width:0.593;stroke-dasharray:none"
       id="path12"
       inkscape:flatsided="false"
       sodipodi:sides="3"
       sodipodi:cx="34.962826"
       sodipodi:cy="190.6394"
       sodipodi:r1="5.9910903"
       sodipodi:r2="2.9955451"
       sodipodi:arg1="0.74194727"
       sodipodi:arg2="1.7891448"
       inkscape:rounded="0"
       inkscape:randomized="0"
       d="m 39.379183,194.68773 -5.065245,-1.12391 -5.065245,-1.1239 3.505954,-3.82468 3.505955,-3.82468 1.55929,4.94859 z"
       inkscape:transform-center-x="-0.28949569"
       inkscape:transform-center-y="-0.38614767"
       transform="matrix(0.47537321,-0.12858331,0.12858331,0.47537321,11.174668,52.620067)" />
    <path
       sodipodi:type="star"
       style="fill:#333333;fill-opacity:1;stroke:#1a1a1a;stroke-width:0.593;stroke-dasharray:none"
       id="path12-1"
       inkscape:flatsided="false"
       sodipodi:sides="3"
       sodipodi:cx="34.962826"
       sodipodi:cy="190.6394"
       sodipodi:r1="5.9910903"
       sodipodi:r2="2.9955451"
       sodipodi:arg1="0.74194727"
       sodipodi:arg2="1.7891448"
       inkscape:rounded="0"
       inkscape:randomized="0"
       d="m 39.379183,194.68773 -5.065245,-1.12391 -5.065245,-1.1239 3.505954,-3.82468 3.505955,-3.82468 1.55929,4.94859 z"
       inkscape:transform-center-x="0.29028434"
       inkscape:transform-center-y="-0.008559633"
       transform="matrix(0.49153194,0.03016133,-0.03016133,0.49153194,143.04979,46.295696)" />
    <path
       sodipodi:type="star"
       style="fill:#333333;fill-opacity:1;stroke:#1a1a1a;stroke-width:0.593;stroke-dasharray:none"
       id="path12-1-2"
       inkscape:flatsided="false"
       sodipodi:sides="3"
       sodipodi:cx="34.962826"
       sodipodi:cy="190.6394"
       sodipodi:r1="5.9910903"
       sodipodi:r2="2.9955451"
       sodipodi:arg1="0.74194727"
       sodipodi:arg2="1.7891448"
       inkscape:rounded="0"
       inkscape:randomized="0"
       d="m 39.379183,194.68773 -5.065245,-1.12391 -5.065245,-1.1239 3.505954,-3.82468 3.505955,-3.82468 1.55929,4.94859 z"
       inkscape:transform-center-x="0.15892855"
       inkscape:transform-center-y="0.11739272"
       transform="matrix(-0.01772945,-0.4921372,0.4921372,-0.01772945,50.483939,105.35676)" />
    <path
       sodipodi:type="star"
       style="fill:#333333;fill-opacity:1;stroke:#1a1a1a;stroke-width:0.593;stroke-dasharray:none"
       id="path12-1-1"
       inkscape:flatsided="false"
       sodipodi:sides="3"
       sodipodi:cx="34.962826"
       sodipodi:cy="190.6394"
       sodipodi:r1="5.9910903"
       sodipodi:r2="2.9955451"
       sodipodi:arg1="0.74194727"
       sodipodi:arg2="1.7891448"
       inkscape:rounded="0"
       inkscape:randomized="0"
       d="m 39.379183,194.68773 -5.065245,-1.12391 -5.065245,-1.1239 3.505954,-3.82468 3.505955,-3.82468 1.55929,4.94859 z"
       inkscape:transform-center-x="-0.3726277"
       inkscape:transform-center-y="0.31136927"
       transform="matrix(0.13446813,0.4737422,-0.4737422,0.13446813,148.97702,42.703787)" />
    <path
       d="M 113.14217,200.18402 H 90.746119 a 11.408922,11.408922 0 0 0 11.198281,9.22476 11.408922,11.408922 0 0 0 11.19777,-9.22476 z"
       style="fill:#333333;stroke:#1a1a1a;stroke-width:0.593"
       id="path18" />
    <rect
       style="fill:#333333;fill-opacity:1;stroke:none;stroke-width:0.593;stroke-dasharray:none"
       id="rect19"
       width="115.92937"
       height="3.3122675"
       x="44.899628"
       y="199.1041" />
    <rect
       style="fill:#b3b3b3;fill-opacity:1;stroke:none;stroke-width:0.593;stroke-dasharray:none"
       id="rect20"
       width="4.4163566"
       height="58.884758"
       x="193.89847"
       y="116.21285"
       ry="2.2081783"
       transform="rotate(32.477682)" />
    <circle
       style="fill:#333333;fill-opacity:1;stroke:none;stroke-width:0.3558;stroke-dasharray:none"
       id="path20"
       cx="69.741631"
       cy="254.49257"
       r="6.0724912" />
  </g>
</svg>
