<?xml version="1.0" encoding="UTF-8" standalone="no"?>
<!-- Created with Inkscape (http://www.inkscape.org/) -->

<svg
   width="210mm"
   height="297mm"
   viewBox="0 0 210 297"
   version="1.1"
   id="svg1"
   inkscape:version="1.4.2 (f4327f4, 2025-05-13)"
   sodipodi:docname="Systems.svg"
   xmlns:inkscape="http://www.inkscape.org/namespaces/inkscape"
   xmlns:sodipodi="http://sodipodi.sourceforge.net/DTD/sodipodi-0.dtd"
   xmlns="http://www.w3.org/2000/svg"
   xmlns:svg="http://www.w3.org/2000/svg">
  <sodipodi:namedview
     id="namedview1"
     pagecolor="#ffffff"
     bordercolor="#000000"
     borderopacity="0.25"
     inkscape:showpageshadow="2"
     inkscape:pageopacity="0.0"
     inkscape:pagecheckerboard="0"
     inkscape:deskcolor="#d1d1d1"
     inkscape:document-units="mm"
     showguides="true"
     inkscape:zoom="0.71891835"
     inkscape:cx="396.42889"
     inkscape:cy="561.25984"
     inkscape:window-width="1920"
     inkscape:window-height="1009"
     inkscape:window-x="-8"
     inkscape:window-y="-8"
     inkscape:window-maximized="1"
     inkscape:current-layer="layer1" />
  <defs
     id="defs1" />
  <g
     inkscape:label="Layer 1"
     inkscape:groupmode="layer"
     id="layer1">
    <rect
       style="fill:#ececec;stroke:#1a1a1a;stroke-width:1"
       id="rect2"
       width="100.10409"
       height="5.8884759"
       x="-194.86"
       y="-31.893642"
       transform="rotate(-146.22408)" />
    <rect
       style="fill:#ececec;stroke:#1a1a1a;stroke-width:1"
       id="rect2-8"
       width="100.10409"
       height="5.8884759"
       x="-21.113272"
       y="144.48709"
       transform="rotate(-33.859256)" />
    <circle
       style="fill:#b3b3b3;stroke:#1a1a1a;stroke-width:1"
       id="path2"
       cx="-137.63847"
       cy="60.984528"
       r="13.98513"
       transform="rotate(-90.326027)" />
    <path
       style="fill:none;stroke:#1a1a1a;stroke-width:0.695111"
       id="path2-6"
       transform="rotate(-90.326027)"
       sodipodi:type="arc"
       sodipodi:cx="-137.62102"
       sodipodi:cy="60.997787"
       sodipodi:rx="9.7212191"
       sodipodi:ry="9.7212191"
       sodipodi:start="0"
       sodipodi:end="4.3679293"
       sodipodi:arc-type="arc"
       d="m -127.8998,60.997787 a 9.7212191,9.7212191 0 0 1 -8.60748,9.65721 9.7212191,9.7212191 0 0 1 -10.57976,-7.4444 9.7212191,9.7212191 0 0 1 6.18328,-11.362985"
       sodipodi:open="true" />
    <circle
       style="fill:#b3b3b3;stroke:#1a1a1a;stroke-width:1"
       id="path2-1"
       cx="-75.841362"
       cy="61.274925"
       r="13.98513"
       transform="rotate(-90.326027)" />
    <circle
       style="fill:#b3b3b3;stroke:#1a1a1a;stroke-width:1"
       id="path2-1-2"
       cx="-76.102013"
       cy="144.81776"
       r="13.98513"
       transform="rotate(-90.326027)" />
    <circle
       style="fill:#999999;stroke:#1a1a1a;stroke-width:1"
       id="path2-1-2-2"
       cx="-138.34479"
       cy="145.18369"
       r="13.98513"
       transform="rotate(-90.326027)" />
    <rect
       style="fill:#333333;fill-opacity:1;stroke:#1a1a1a;stroke-width:1.07855"
       id="rect1"
       width="32.754646"
       height="41.955391"
       x="-122.45776"
       y="81.594193"
       ry="12.513011"
       transform="rotate(-90.326027)" />
    <path
       style="fill:none;stroke:#1a1a1a;stroke-width:0.695111"
       id="path2-6-1"
       transform="rotate(-90.326027)"
       sodipodi:type="arc"
       sodipodi:cx="-138.37245"
       sodipodi:cy="145.50818"
       sodipodi:rx="9.7212191"
       sodipodi:ry="9.7212191"
       sodipodi:start="0"
       sodipodi:end="4.3679293"
       sodipodi:arc-type="arc"
       d="m -128.65123,145.50818 a 9.7212191,9.7212191 0 0 1 -8.60748,9.65721 9.7212191,9.7212191 0 0 1 -10.57976,-7.4444 9.7212191,9.7212191 0 0 1 6.18328,-11.36299"
       sodipodi:open="true" />
    <path
       style="fill:none;stroke:#1a1a1a;stroke-width:0.695111"
       id="path2-6-1-9"
       transform="rotate(-90.326027)"
       sodipodi:type="arc"
       sodipodi:cx="-76.443916"
       sodipodi:cy="144.97125"
       sodipodi:rx="9.7212191"
       sodipodi:ry="9.7212191"
       sodipodi:start="0"
       sodipodi:end="4.3679293"
       sodipodi:arc-type="arc"
       d="m -66.722697,144.97125 a 9.7212191,9.7212191 0 0 1 -8.607481,9.65721 9.7212191,9.7212191 0 0 1 -10.57976,-7.4444 9.7212191,9.7212191 0 0 1 6.183281,-11.36298"
       sodipodi:open="true" />
    <path
       style="fill:none;stroke:#1a1a1a;stroke-width:0.695111"
       id="path2-6-1-2"
       transform="rotate(-90.326027)"
       sodipodi:type="arc"
       sodipodi:cx="-75.944458"
       sodipodi:cy="61.73439"
       sodipodi:rx="9.7212191"
       sodipodi:ry="9.7212191"
       sodipodi:start="0"
       sodipodi:end="4.3679293"
       sodipodi:arc-type="arc"
       d="M -66.223239,61.73439 A 9.7212191,9.7212191 0 0 1 -74.83072,71.391599 9.7212191,9.7212191 0 0 1 -85.41048,63.9472 9.7212191,9.7212191 0 0 1 -79.227198,52.584215"
       sodipodi:open="true" />
    <path
       sodipodi:type="star"
       style="fill:#333333;fill-opacity:1;stroke:#1a1a1a;stroke-width:0.593;stroke-dasharray:none"
       id="path12"
       inkscape:flatsided="false"
       sodipodi:sides="3"
       sodipodi:cx="34.962826"
       sodipodi:cy="190.6394"
       sodipodi:r1="5.9910903"
       sodipodi:r2="2.9955451"
       sodipodi:arg1="0.74194727"
       sodipodi:arg2="1.7891448"
       inkscape:rounded="0"
       inkscape:randomized="0"
       d="m 39.379183,194.68773 -5.065245,-1.12391 -5.065245,-1.1239 3.505954,-3.82468 3.505955,-3.82468 1.55929,4.94859 z"
       inkscape:transform-center-x="-0.28949569"
       inkscape:transform-center-y="-0.38614767"
       transform="matrix(0.47537321,-0.12858331,0.12858331,0.47537321,11.174668,52.620067)" />
    <path
       sodipodi:type="star"
       style="fill:#333333;fill-opacity:1;stroke:#1a1a1a;stroke-width:0.593;stroke-dasharray:none"
       id="path12-1"
       inkscape:flatsided="false"
       sodipodi:sides="3"
       sodipodi:cx="34.962826"
       sodipodi:cy="190.6394"
       sodipodi:r1="5.9910903"
       sodipodi:r2="2.9955451"
       sodipodi:arg1="0.74194727"
       sodipodi:arg2="1.7891448"
       inkscape:rounded="0"
       inkscape:randomized="0"
       d="m 39.379183,194.68773 -5.065245,-1.12391 -5.065245,-1.1239 3.505954,-3.82468 3.505955,-3.82468 1.55929,4.94859 z"
       inkscape:transform-center-x="-0.28949569"
       inkscape:transform-center-y="-0.38614767"
       transform="matrix(0.47537321,-0.12858331,0.12858331,0.47537321,95.7809,53.306486)" />
    <path
       sodipodi:type="star"
       style="fill:#333333;fill-opacity:1;stroke:#1a1a1a;stroke-width:0.593;stroke-dasharray:none"
       id="path12-1-2"
       inkscape:flatsided="false"
       sodipodi:sides="3"
       sodipodi:cx="34.962826"
       sodipodi:cy="190.6394"
       sodipodi:r1="5.9910903"
       sodipodi:r2="2.9955451"
       sodipodi:arg1="0.74194727"
       sodipodi:arg2="1.7891448"
       inkscape:rounded="0"
       inkscape:randomized="0"
       d="m 39.379183,194.68773 -5.065245,-1.12391 -5.065245,-1.1239 3.505954,-3.82468 3.505955,-3.82468 1.55929,4.94859 z"
       inkscape:transform-center-x="-0.28949569"
       inkscape:transform-center-y="-0.38614767"
       transform="matrix(0.47537321,-0.12858331,0.12858331,0.47537321,95.086594,-8.4250124)" />
    <path
       sodipodi:type="star"
       style="fill:#333333;fill-opacity:1;stroke:#1a1a1a;stroke-width:0.593;stroke-dasharray:none"
       id="path12-1-1"
       inkscape:flatsided="false"
       sodipodi:sides="3"
       sodipodi:cx="34.962826"
       sodipodi:cy="190.6394"
       sodipodi:r1="5.9910903"
       sodipodi:r2="2.9955451"
       sodipodi:arg1="0.74194727"
       sodipodi:arg2="1.7891448"
       inkscape:rounded="0"
       inkscape:randomized="0"
       d="m 39.379183,194.68773 -5.065245,-1.12391 -5.065245,-1.1239 3.505954,-3.82468 3.505955,-3.82468 1.55929,4.94859 z"
       inkscape:transform-center-x="-0.28949569"
       inkscape:transform-center-y="-0.38614767"
       transform="matrix(0.47537321,-0.12858331,0.12858331,0.47537321,11.903939,-7.3805573)" />
    <path
       d="M 113.14217,200.18402 H 90.746119 a 11.408922,11.408922 0 0 0 11.198281,9.22476 11.408922,11.408922 0 0 0 11.19777,-9.22476 z"
       style="fill:#333333;stroke:#1a1a1a;stroke-width:0.593"
       id="path18" />
    <rect
       style="fill:#333333;fill-opacity:1;stroke:none;stroke-width:0.593;stroke-dasharray:none"
       id="rect19"
       width="115.92937"
       height="3.3122675"
       x="44.899628"
       y="199.1041" />
    <rect
       style="fill:#b3b3b3;fill-opacity:1;stroke:none;stroke-width:0.593;stroke-dasharray:none"
       id="rect20"
       width="4.4163566"
       height="58.884758"
       x="193.89847"
       y="116.21285"
       ry="2.2081783"
       transform="rotate(32.477682)" />
    <circle
       style="fill:#333333;fill-opacity:1;stroke:none;stroke-width:0.3558;stroke-dasharray:none"
       id="path20"
       cx="69.741631"
       cy="254.49257"
       r="6.0724912" />
  </g>
</svg>
